<?xml version="1.0" encoding="UTF-8"?>
<svg width="131px" height="93px" viewBox="0 0 131 93" version="1.1" xmlns="http://www.w3.org/2000/svg" xmlns:xlink="http://www.w3.org/1999/xlink">
    <!-- Generator: Sketch 52.2 (67145) - http://www.bohemiancoding.com/sketch -->
    <title>暂无内容</title>
    <desc>Created with Sketch.</desc>
    <defs>
        <linearGradient x1="14.1258677%" y1="100%" x2="50%" y2="0%" id="linearGradient-1">
            <stop stop-color="#BCE7FF" offset="0%"></stop>
            <stop stop-color="#2DA1FF" offset="100%"></stop>
        </linearGradient>
        <linearGradient x1="32.1140796%" y1="100%" x2="32.1140784%" y2="-14.3170249%" id="linearGradient-2">
            <stop stop-color="#C2EAFF" stop-opacity="0" offset="0%"></stop>
            <stop stop-color="#46ACFF" offset="100%"></stop>
        </linearGradient>
        <linearGradient x1="0%" y1="0%" x2="89.4237523%" y2="91.7427537%" id="linearGradient-3">
            <stop stop-color="#F0FBFF" offset="0%"></stop>
            <stop stop-color="#70C4FF" offset="100%"></stop>
        </linearGradient>
        <linearGradient x1="50%" y1="8.7941991%" x2="50%" y2="100%" id="linearGradient-4">
            <stop stop-color="#73C5FF" offset="0%"></stop>
            <stop stop-color="#46ACFF" offset="100%"></stop>
        </linearGradient>
        <linearGradient x1="50%" y1="0%" x2="50%" y2="131.905595%" id="linearGradient-5">
            <stop stop-color="#C2EAFF" offset="0%"></stop>
            <stop stop-color="#46ACFF" offset="100%"></stop>
        </linearGradient>
        <linearGradient x1="100%" y1="26.2925662%" x2="0%" y2="26.2925655%" id="linearGradient-6">
            <stop stop-color="#E3F6FF" offset="0%"></stop>
            <stop stop-color="#70C4FF" offset="100%"></stop>
        </linearGradient>
        <linearGradient x1="100%" y1="50%" x2="0%" y2="50%" id="linearGradient-7">
            <stop stop-color="#C2EAFF" offset="0%"></stop>
            <stop stop-color="#70C4FF" offset="100%"></stop>
        </linearGradient>
        <linearGradient x1="78.3718792%" y1="9.27760053%" x2="25.2781734%" y2="86.6050635%" id="linearGradient-8">
            <stop stop-color="#F0FAFF" offset="0%"></stop>
            <stop stop-color="#99D8FF" offset="100%"></stop>
        </linearGradient>
        <linearGradient x1="65.8964147%" y1="36.7283106%" x2="29.7473349%" y2="88.5712175%" id="linearGradient-9">
            <stop stop-color="#C5E9FF" offset="0%"></stop>
            <stop stop-color="#70C4FF" offset="100%"></stop>
        </linearGradient>
        <ellipse id="path-10" cx="14.8134527" cy="14.8582314" rx="11.8005471" ry="11.8362182"></ellipse>
        <filter x="-4.2%" y="-4.2%" width="108.5%" height="108.4%" filterUnits="objectBoundingBox" id="filter-11">
            <feGaussianBlur stdDeviation="1" in="SourceAlpha" result="shadowBlurInner1"></feGaussianBlur>
            <feOffset dx="0" dy="0" in="shadowBlurInner1" result="shadowOffsetInner1"></feOffset>
            <feComposite in="shadowOffsetInner1" in2="SourceAlpha" operator="arithmetic" k2="-1" k3="1" result="shadowInnerInner1"></feComposite>
            <feColorMatrix values="0 0 0 0 0.534801136   0 0 0 0 0.808064805   0 0 0 0 1  0 0 0 1 0" type="matrix" in="shadowInnerInner1"></feColorMatrix>
        </filter>
        <linearGradient x1="100%" y1="30.0035849%" x2="0%" y2="85.3058666%" id="linearGradient-12">
            <stop stop-color="#FFFFFF" stop-opacity="0.27" offset="0%"></stop>
            <stop stop-color="#FFFFFF" offset="100%"></stop>
        </linearGradient>
        <linearGradient x1="50%" y1="0%" x2="50%" y2="178.69561%" id="linearGradient-13">
            <stop stop-color="#C2EAFF" offset="0%"></stop>
            <stop stop-color="#FFFFFF" offset="100%"></stop>
        </linearGradient>
        <linearGradient x1="100%" y1="100%" x2="0%" y2="0%" id="linearGradient-14">
            <stop stop-color="#EBF9FF" offset="0%"></stop>
            <stop stop-color="#FFFFFF" offset="100%"></stop>
        </linearGradient>
        <filter x="-16.6%" y="-136.0%" width="133.2%" height="372.0%" filterUnits="objectBoundingBox" id="filter-15">
            <feGaussianBlur stdDeviation="5.81817857" in="SourceGraphic"></feGaussianBlur>
        </filter>
    </defs>
    <g id="确定版" stroke="none" stroke-width="1" fill="none" fill-rule="evenodd">
        <g id="1对1" transform="translate(-1122.000000, -794.000000)">
            <g id="Group-23" transform="translate(62.000000, 301.000000)">
                <g id="Group-12" transform="translate(1020.000000, 493.000000)">
                    <g id="暂无内容" transform="translate(53.000000, 0.000000)">
                        <g id="Group-6" transform="translate(7.000000, 0.000000)">
                            <path d="M71.8075843,0 L71.8075843,0 C75.4128782,-6.62281759e-16 78.3355465,2.92266823 78.3355465,6.52796221 L78.3355465,15.6137347 L65.2796221,15.6137347 L65.2796221,6.52796221 C65.2796221,2.92266823 68.2022903,6.62281759e-16 71.8075843,0 Z" id="Rectangle-3" fill="url(#linearGradient-1)"></path>
                            <path d="M74.0631639,2.5183443 L74.071363,2.5183443 C76.4264065,2.5183443 78.3355465,4.42748425 78.3355465,6.78252774 L78.3355465,15.6137347 L69.7989805,15.6137347 L69.7989805,6.78252774 C69.7989805,4.42748425 71.7081205,2.5183443 74.0631639,2.5183443 Z" id="Rectangle-5" fill="url(#linearGradient-2)"></path>
                            <path d="M65.2796221,7.5550329 L65.2796221,57.41825 C65.3124259,63.1462488 64.0944786,69.2473357 53.7301505,69.0026338 L16.06883,69.0026338 L16.06883,9.06603948 C16.2052107,4.03633932 20.3119684,0 25.3586224,0 L72.3097352,0 C68.3839032,0.275703619 65.2796221,3.55175056 65.2796221,7.5550329 Z" id="Combined-Shape" fill="url(#linearGradient-3)"></path>
                            <rect id="Rectangle-6" fill="#FFFFFF" opacity="0.464899554" x="33.141962" y="12.0880526" width="25.1075469" height="2.5183443" rx="1.25917215"></rect>
                            <rect id="Rectangle-6-Copy" fill="#FFFFFF" opacity="0.464899554" x="33.141962" y="17.1247412" width="12.0516225" height="2.5183443" rx="1.25917215"></rect>
                            <rect id="Rectangle-6-Copy-3" fill="#FFFFFF" opacity="0.463225446" x="33.141962" y="26.1907807" width="25.1075469" height="2.5183443" rx="1.25917215"></rect>
                            <rect id="Rectangle-6-Copy-2" fill="#FFFFFF" opacity="0.463225446" x="33.141962" y="31.2274693" width="12.0516225" height="2.5183443" rx="1.25917215"></rect>
                            <rect id="Rectangle-6-Copy-5" fill="#FFFFFF" opacity="0.456997768" x="33.141962" y="40.2935088" width="25.1075469" height="2.5183443" rx="1.25917215"></rect>
                            <rect id="Rectangle-6-Copy-4" fill="#FFFFFF" opacity="0.456997768" x="33.141962" y="45.3301974" width="12.0516225" height="2.5183443" rx="1.25917215"></rect>
                            <path d="M55.7387542,69.0026338 L54.2323014,69.0026338 C49.7950165,69.0026338 46.1978864,65.3946301 46.1978864,60.943932 C46.1978864,58.2576981 46.1978864,56.2430227 46.1978864,54.8999057 L50.7172448,54.8999057 C50.7172448,56.3549491 50.7172448,58.2017349 50.7172448,60.4402632 C50.7172448,64.8225616 54.204661,68.3878681 58.5476845,68.4964185 C57.6733333,68.8237165 56.726875,69.0026338 55.7387542,69.0026338 Z" id="Combined-Shape" fill="url(#linearGradient-4)"></path>
                            <path d="M46.1978864,54.8999057 L46.1978864,60.6920976 C46.1978864,65.28188 49.9074268,69.0026338 54.4833769,69.0026338 C54.885417,69.0026338 55.4712597,69.0026338 56.2409052,69.0026338 L9.54086784,69.0026338 C4.27159203,69.0026338 0,64.7181294 0,59.4329255 L0,54.8999057 L46.1978864,54.8999057 Z" id="Combined-Shape" fill="url(#linearGradient-5)"></path>
                            <g id="放大镜" transform="translate(51.219396, 30.220132)">
                                <g id="Group-2" transform="translate(30.344714, 30.329374) rotate(-45.000000) translate(-30.344714, -30.329374) translate(27.832698, 19.728736)">
                                    <rect id="Rectangle-2" fill="url(#linearGradient-6)" x="1.50645282" y="0" width="2.00860376" height="19.1394167" rx="1.00430188"></rect>
                                    <path d="M2.5083432,7.05136404 L2.51316619,7.05136404 C3.89848589,7.05136404 5.02150939,8.17438754 5.02150939,9.55970724 L5.02150939,18.6457489 C5.02150939,20.0310686 3.89848589,21.1540921 2.51316619,21.1540921 L2.5083432,21.1540921 C1.1230235,21.1540921 -2.74436477e-16,20.0310686 -4.4408921e-16,18.6457489 L-4.4408921e-16,9.55970724 C-6.13741943e-16,8.17438754 1.1230235,7.05136404 2.5083432,7.05136404 Z" id="Rectangle-2-Copy" fill="url(#linearGradient-7)"></path>
                                    <rect id="Rectangle-2-Copy-2" fill="#FFFFFF" opacity="0.566350446" x="1.11195423" y="9.46185534" width="2.51075469" height="9.56970834" rx="1.25537735"></rect>
                                </g>
                                <ellipse id="Oval-5" fill="url(#linearGradient-8)" cx="14.5623772" cy="14.6063969" rx="14.5623772" ry="14.6063969"></ellipse>
                                <g id="Oval-5-Copy">
                                    <use fill="url(#linearGradient-9)" fill-rule="evenodd" xlink:href="#path-10"></use>
                                    <use fill="black" fill-opacity="1" filter="url(#filter-11)" xlink:href="#path-10"></use>
                                </g>
                                <path d="M5.99466769,12.668146 C6.13428288,11.9874007 6.79828976,11.5489391 7.47776857,11.6888145 C8.15724738,11.8286899 8.59489331,12.4939344 8.45527812,13.1746796 C8.37326676,13.5745562 8.33154202,13.9845204 8.33154202,14.4006499 C8.33154202,16.7893863 9.72468576,18.9232882 11.8520014,19.9003797 C12.4825676,20.1900034 12.759393,20.9369174 12.4703081,21.5686589 C12.1812232,22.2004004 11.4356987,22.4777418 10.8051325,22.1881181 C7.79274943,20.8045087 5.81952564,17.7820883 5.81952564,14.4006499 C5.81952564,13.8141252 5.87852252,13.2344545 5.99466769,12.668146 Z" id="Oval-5-Copy-2" fill="url(#linearGradient-12)" fill-rule="nonzero" opacity="0.58"></path>
                                <path d="M14.5896781,23.7147669 C13.8959806,23.7146012 13.3334933,23.1511036 13.3333275,22.4561598 C13.3331617,21.7612161 13.8953802,21.1979872 14.5890777,21.198153 C14.8489793,21.1982151 15.1065113,21.1818427 15.3607522,21.1493646 C15.4575805,21.1369952 15.5539064,21.1222927 15.6496739,21.1052787 C16.3326577,20.9839403 16.9847776,21.4402856 17.1062246,22.1245544 C17.2276715,22.8088233 16.772456,23.461897 16.0894722,23.5832353 C15.9535909,23.6073759 15.8169645,23.6282297 15.6796842,23.6457666 C15.3199373,23.6917227 14.9560811,23.7148545 14.5896781,23.7147669 Z" id="Path" fill="url(#linearGradient-13)" fill-rule="nonzero" opacity="0.584765625" transform="translate(15.229582, 22.400253) rotate(-352.000000) translate(-15.229582, -22.400253) "></path>
                            </g>
                            <rect id="Rectangle-7" fill="url(#linearGradient-14)" opacity="0.520870536" x="22.5967923" y="12.0880526" width="7.61217085" height="7.63518121" rx="0.760104"></rect>
                            <rect id="Rectangle-7-Copy" fill="url(#linearGradient-14)" opacity="0.520870536" x="22.5967923" y="26.1907807" width="7.61217085" height="7.63518121" rx="0.760104"></rect>
                            <rect id="Rectangle-7-Copy-2" fill="url(#linearGradient-14)" opacity="0.520870536" x="22.5967923" y="40.2935088" width="7.61217085" height="7.63518121" rx="0.760104"></rect>
                        </g>
                        <ellipse id="Oval-6" fill="#BFE5FF" opacity="0.703445871" filter="url(#filter-15)" cx="52.5" cy="72.5833333" rx="52.5" ry="6.41666667"></ellipse>
                    </g>
                </g>
            </g>
        </g>
    </g>
</svg>